0
SECTION
2
HEADER
9
$INSUNITS
70
4
9
$ACADVER
1
AC1014
9
$HANDSEED
5
FFFF
0
ENDSEC
0
SECTION
2
TABLES
0
TABLE
2
VPORT
5
8
100
AcDbSymbolTable
0
ENDTAB
0
TABLE
2
LTYPE
5
5
100
AcDbSymbolTable
0
LTYPE
5
14
100
AcDbSymbolTableRecord
100
AcDbLinetypeTableRecord
2
BYBLOCK
70
0
0
LTYPE
5
15
100
AcDbSymbolTableRecord
100
AcDbLinetypeTableRecord
2
BYLAYER
70
0
0
ENDTAB
0
TABLE
2
LAYER
5
2
100
AcDbSymbolTable
70
2
0
LAYER
5
50
100
AcDbSymbolTableRecord
100
AcDbLayerTableRecord
2
0
70
0
6
CONTINUOUS
0
ENDTAB
0
TABLE
2
STYLE
5
3
100
AcDbSymbolTable
70
1
0
STYLE
5
11
100
AcDbSymbolTableRecord
100
AcDbTextStyleTableRecord
2
STANDARD
70
0
0
ENDTAB
0
TABLE
2
VIEW
5
6
100
AcDbSymbolTable
70
0
0
ENDTAB
0
TABLE
2
UCS
5
7
100
AcDbSymbolTable
70
0
0
ENDTAB
0
TABLE
2
APPID
5
9
100
AcDbSymbolTable
70
2
0
APPID
5
12
100
AcDbSymbolTableRecord
100
AcDbRegAppTableRecord
2
ACAD
70
0
0
ENDTAB
0
TABLE
2
DIMSTYLE
5
A
100
AcDbSymbolTable
70
1
0
ENDTAB
0
TABLE
2
BLOCK_RECORD
5
1
100
AcDbSymbolTable
70
1
0
BLOCK_RECORD
5
1F
100
AcDbSymbolTableRecord
100
AcDbBlockTableRecord
2
*MODEL_SPACE
0
BLOCK_RECORD
5
1B
100
AcDbSymbolTableRecord
100
AcDbBlockTableRecord
2
*PAPER_SPACE
0
ENDTAB
0
ENDSEC
0
SECTION
2
BLOCKS
0
BLOCK
5
20
100
AcDbEntity
100
AcDbBlockBegin
2
*MODEL_SPACE
0
ENDBLK
5
21
100
AcDbEntity
100
AcDbBlockEnd
0
BLOCK
5
1C
100
AcDbEntity
100
AcDbBlockBegin
2
*PAPER_SPACE
0
ENDBLK
5
1D
100
AcDbEntity
100
AcDbBlockEnd
0
ENDSEC
0
SECTION
2
ENTITIES
0
CIRCLE
5
100
100
AcDbEntity
8
0
100
AcDbCircle
10
-2.8698604848983917
20
-15.050708238541493
30
0
40
1.699999999999998
210
0
220
0
230
1
0
CIRCLE
5
101
100
AcDbEntity
8
0
100
AcDbCircle
10
-2.869860484898406
20
12.949291761458475
30
0
40
1.699999999999998
210
0
220
0
230
1
0
LINE
5
102
100
AcDbEntity
8
0
100
AcDbLine
10
-2.869860484898406
20
12.949291761458475
30
0
11
-2.8698604848983917
21
-15.050708238541493
31
0
0
LINE
5
103
100
AcDbEntity
8
0
100
AcDbLine
10
38.63013951510154
20
29.649291761458475
30
0
11
38.63013951510154
21
-31.75070823854146
31
0
0
LINE
5
104
100
AcDbEntity
8
0
100
AcDbLine
10
38.13013951510154
20
29.649291761458475
30
0
11
38.13013951510154
21
-31.75070823854146
31
0
0
ARC
5
105
100
AcDbEntity
8
0
100
AcDbCircle
10
36.630139515103167
20
38.44929176146011
30
0
40
7.1000000000016428
210
0
220
0
230
1
100
AcDbArc
50
180
51
269.9999999999867
0
LINE
5
106
100
AcDbEntity
8
0
100
AcDbLine
10
29.530139515101528
20
38.449291761458454
30
0
11
29.530139515101524
21
41.249291761458444
31
0
0
ARC
5
107
100
AcDbEntity
8
0
100
AcDbCircle
10
27.830139515101084
20
41.249291761457997
30
0
40
1.7000000000004389
210
0
220
-0
230
1
100
AcDbArc
50
0
51
89.999999999985036
0
LINE
5
108
100
AcDbEntity
8
0
100
AcDbLine
10
27.830139515101529
20
42.94929176145844
30
0
11
-33.569860484898371
21
42.949291761458433
31
0
0
LINE
5
109
100
AcDbEntity
8
0
100
AcDbLine
10
39.430139515101509
20
31.349291761458463
30
0
11
36.630139515101519
21
31.349291761458467
31
0
0
LINE
5
110
100
AcDbEntity
8
0
100
AcDbLine
10
41.130139515101547
20
-31.75070823854146
30
0
11
41.130139515101519
21
29.649291761458475
31
0
0
ARC
5
111
100
AcDbEntity
8
0
100
AcDbCircle
10
39.430139515101061
20
29.649291761458031
30
0
40
1.7000000000004567
210
0
220
-0
230
1
100
AcDbArc
50
0
51
89.999999999984908
0
ARC
5
112
100
AcDbEntity
8
0
100
AcDbCircle
10
39.430139515101096
20
-31.750708238541016
30
0
40
1.7000000000004434
210
-0
220
0
230
1
100
AcDbArc
50
270.00000000001506
51
360
0
LINE
5
113
100
AcDbEntity
8
0
100
AcDbLine
10
36.630139515101547
20
-33.450708238541452
30
0
11
39.430139515101544
21
-33.450708238541459
31
0
0
ARC
5
114
100
AcDbEntity
8
0
100
AcDbCircle
10
36.630139515103203
20
-40.550708238543095
30
0
40
7.1000000000016472
210
0
220
0
230
1
100
AcDbArc
50
90.000000000013358
51
180
0
LINE
5
115
100
AcDbEntity
8
0
100
AcDbLine
10
29.530139515101563
20
-43.350708238541444
30
0
11
29.53013951510156
21
-40.550708238541439
31
0
0
ARC
5
116
100
AcDbEntity
8
0
100
AcDbCircle
10
27.830139515101131
20
-43.350708238540996
30
0
40
1.7000000000004434
210
-0
220
0
230
1
100
AcDbArc
50
270.00000000001484
51
360
0
LINE
5
117
100
AcDbEntity
8
0
100
AcDbLine
10
-33.569860484898328
20
-45.050708238541468
30
0
11
27.830139515101571
21
-45.050708238541439
31
0
0
LINE
5
118
100
AcDbEntity
8
0
100
AcDbLine
10
39.430139515101509
20
30.349291761458463
30
0
11
36.630139515101519
21
30.349291761458467
31
0
0
ARC
5
119
100
AcDbEntity
8
0
100
AcDbCircle
10
36.630139515103167
20
38.44929176146011
30
0
40
8.1000000000016428
210
0
220
0
230
1
100
AcDbArc
50
180
51
269.99999999998835
0
LINE
5
120
100
AcDbEntity
8
0
100
AcDbLine
10
28.530139515101528
20
38.44929176145822
30
0
11
28.530139515101524
21
41.249291761458444
31
0
0
ARC
5
121
100
AcDbEntity
8
0
100
AcDbCircle
10
27.830139515101084
20
41.249291761457997
30
0
40
0.70000000000043805
210
0
220
-0
230
1
100
AcDbArc
50
0
51
89.999999999985164
0
LINE
5
122
100
AcDbEntity
8
0
100
AcDbLine
10
27.830139515101266
20
41.94929176145844
30
0
11
-33.569860484898363
21
41.94929176145844
31
0
0
LINE
5
123
100
AcDbEntity
8
0
100
AcDbLine
10
-33.569860484898328
20
-44.050708238541468
30
0
11
27.830139515101571
21
-44.050708238541446
31
0
0
ARC
5
124
100
AcDbEntity
8
0
100
AcDbCircle
10
27.830139515101131
20
-43.350708238540996
30
0
40
0.70000000000044693
210
0
220
0
230
1
100
AcDbArc
50
270.00000000003604
51
360
0
LINE
5
125
100
AcDbEntity
8
0
100
AcDbLine
10
28.53013951510157
20
-43.350708238541174
30
0
11
28.53013951510156
21
-40.550708238541439
31
0
0
ARC
5
126
100
AcDbEntity
8
0
100
AcDbCircle
10
36.630139515103203
20
-40.550708238543095
30
0
40
8.1000000000016481
210
0
220
0
230
1
100
AcDbArc
50
90.000000000013316
51
180
0
LINE
5
127
100
AcDbEntity
8
0
100
AcDbLine
10
36.63013951510132
20
-32.450708238541452
30
0
11
39.430139515101544
21
-32.450708238541459
31
0
0
LINE
5
128
100
AcDbEntity
8
0
100
AcDbLine
10
38.13013951510154
20
-31.75070823854146
30
0
11
38.13013951510154
21
-32.450708238541452
31
0
0
LINE
5
129
100
AcDbEntity
8
0
100
AcDbLine
10
38.13013951510154
20
29.649291761458475
30
0
11
38.13013951510154
21
30.349291761458463
31
0
0
LINE
5
130
100
AcDbEntity
8
0
100
AcDbLine
10
-33.569860484898108
20
41.949291761458412
30
0
11
27.830139515101525
21
41.949291761458468
31
0
0
LINE
5
131
100
AcDbEntity
8
0
100
AcDbLine
10
-34.269860484898366
20
38.449291761458191
30
0
11
-34.269860484898366
21
41.249291761458409
31
0
0
ARC
5
132
100
AcDbEntity
8
0
100
AcDbCircle
10
-33.56986048489793
20
41.249291761457968
30
0
40
0.70000000000044693
210
0
220
0
230
1
100
AcDbArc
50
90.000000000014552
51
180
0
ARC
5
133
100
AcDbEntity
8
0
100
AcDbCircle
10
-42.369860484900016
20
38.449291761460074
30
0
40
8.1000000000016428
210
0
220
0
230
1
100
AcDbArc
50
270.00000000001177
51
360
0
LINE
5
134
100
AcDbEntity
8
0
100
AcDbLine
10
-45.169860484898336
20
30.349291761458417
30
0
11
-42.369860484898354
21
30.349291761458428
31
0
0
LINE
5
135
100
AcDbEntity
8
0
100
AcDbLine
10
-43.869860484898368
20
29.649291761458436
30
0
11
-43.869860484898297
21
-31.750708238541506
31
0
0
LINE
5
136
100
AcDbEntity
8
0
100
AcDbLine
10
-43.869860484898368
20
29.649291761458436
30
0
11
-43.869860484898368
21
30.349291761458417
31
0
0
LINE
5
137
100
AcDbEntity
8
0
100
AcDbLine
10
-43.869860484898297
20
-31.750708238541506
30
0
11
-43.869860484898297
21
-32.450708238541502
31
0
0
LINE
5
138
100
AcDbEntity
8
0
100
AcDbLine
10
-42.369860484898084
20
-32.450708238541488
30
0
11
-45.169860484898301
21
-32.450708238541509
31
0
0
ARC
5
139
100
AcDbEntity
8
0
100
AcDbCircle
10
-42.369860484899959
20
-40.550708238543152
30
0
40
8.1000000000016392
210
0
220
-0
230
1
100
AcDbArc
50
0
51
89.999999999986741
0
LINE
5
140
100
AcDbEntity
8
0
100
AcDbLine
10
-34.269860484898324
20
-43.350708238541209
30
0
11
-34.269860484898317
21
-40.550708238541461
31
0
0
ARC
5
141
100
AcDbEntity
8
0
100
AcDbCircle
10
-33.56986048489788
20
-43.350708238541031
30
0
40
0.70000000000044249
210
0
220
0
230
1
100
AcDbArc
50
180
51
269.99999999996339
0
LINE
5
142
100
AcDbEntity
8
0
100
AcDbLine
10
27.830139515101571
20
-44.050708238541425
30
0
11
-33.569860484898328
21
-44.050708238541475
31
0
0
LWPOLYLINE
5
143
100
AcDbEntity
8
0
100
AcDbPolyline
90
4
70
1
43
0.0
10
29.13013951510154
20
33.699291761458497
10
-2.0698604848984612
20
33.699291761458497
10
-2.0698604848984612
20
-35.800708238541503
10
29.13013951510154
20
-35.800708238541503
0
LWPOLYLINE
5
144
100
AcDbEntity
8
0
100
AcDbPolyline
90
5
70
1
43
0.0
10
29.13013951510154
20
33.699291761458497
10
22.130139515101526
20
33.699291761458497
10
22.130139515101522
20
27.699291761458497
42
0.41421356237309509
10
23.130139515101536
20
26.699291761458483
10
29.130139515101519
20
26.699291761458465
0
LINE
5
145
100
AcDbEntity
8
0
100
AcDbLine
10
13.53013951510154
20
33.699291761458497
30
0
11
13.53013951510154
21
-35.800708238541503
31
0
0
LINE
5
146
100
AcDbEntity
8
0
100
AcDbLine
10
29.13013951510154
20
-1.0507082385415023
30
0
11
-2.0698604848984612
21
-1.0507082385415023
31
0
0
LINE
5
147
100
AcDbEntity
8
0
100
AcDbLine
10
23.130139515101536
20
-28.800708238541489
30
0
11
29.130139515101519
21
-28.800708238541478
31
0
0
LINE
5
148
100
AcDbEntity
8
0
100
AcDbLine
10
22.130139515101526
20
-35.800708238541503
30
0
11
22.130139515101522
21
-29.800708238541503
31
0
0
ARC
5
149
100
AcDbEntity
8
0
100
AcDbCircle
10
23.130139515101536
20
-29.800708238541503
30
0
40
1.0000000000000142
210
0
220
-0
230
1
100
AcDbArc
50
90
51
180
0
LINE
5
150
100
AcDbEntity
8
0
100
AcDbLine
10
4.9301395151015592
20
33.699291761458497
30
0
11
4.9301395151015592
21
27.699291761458497
31
0
0
ARC
5
151
100
AcDbEntity
8
0
100
AcDbCircle
10
3.930139515101545
20
27.699291761458497
30
0
40
1.0000000000000142
210
0
220
0
230
1
100
AcDbArc
50
-89.999999999999744
51
0
0
LINE
5
152
100
AcDbEntity
8
0
100
AcDbLine
10
3.9301395151015495
20
26.699291761458483
30
0
11
-2.0698604848984381
21
26.699291761458465
31
0
0
LINE
5
153
100
AcDbEntity
8
0
100
AcDbLine
10
3.930139515101545
20
-28.800708238541489
30
0
11
-2.069860484898439
21
-28.800708238541475
31
0
0
ARC
5
154
100
AcDbEntity
8
0
100
AcDbCircle
10
3.9301395151015406
20
-29.800708238541503
30
0
40
1.0000000000000142
210
-0
220
0
230
1
100
AcDbArc
50
0
51
89.999999999999744
0
LINE
5
155
100
AcDbEntity
8
0
100
AcDbLine
10
4.930139515101553
20
-35.800708238541503
30
0
11
4.9301395151015548
21
-29.800708238541503
31
0
0
LINE
5
156
100
AcDbEntity
8
0
100
AcDbLine
10
-43.869860484898325
20
-1.0507082385415334
30
0
11
38.13013951510154
21
-1.0507082385414934
31
0
0
LINE
5
157
100
AcDbEntity
8
0
100
AcDbLine
10
7.1168509633586297
20
41.94929176145844
30
0
11
7.1168509633586297
21
33.699291761458497
31
0
0
LINE
5
158
100
AcDbEntity
8
0
100
AcDbLine
10
9.2898565683826302
20
-35.800708238541503
30
0
11
9.289856568382632
21
-44.050708238541446
31
0
0
CIRCLE
5
159
100
AcDbEntity
8
0
100
AcDbCircle
10
25.780139515101538
20
30.6992917614585
30
0
40
1.5000000000000002
210
0
220
0
230
1
0
CIRCLE
5
160
100
AcDbEntity
8
0
100
AcDbCircle
10
1.2801395151015438
20
30.6992917614585
30
0
40
1.5000000000000002
210
0
220
0
230
1
0
CIRCLE
5
161
100
AcDbEntity
8
0
100
AcDbCircle
10
25.780139515101546
20
-32.800708238541503
30
0
40
1.5000000000000002
210
0
220
0
230
1
0
CIRCLE
5
162
100
AcDbEntity
8
0
100
AcDbCircle
10
1.2801395151015438
20
-32.800708238541503
30
0
40
1.5000000000000002
210
0
220
0
230
1
0
LINE
5
163
100
AcDbEntity
8
0
100
AcDbLine
10
25.780139515101538
20
30.6992917614585
30
0
11
1.2801395151015438
21
-32.800708238541503
31
0
0
LINE
5
164
100
AcDbEntity
8
0
100
AcDbLine
10
1.2801395151015438
20
30.6992917614585
30
0
11
25.780139515101546
21
-32.800708238541503
31
0
0
ENDSEC
0
SECTION
2
OBJECTS
0
DICTIONARY
5
C
100
AcDbDictionary
3
ACAD_GROUP
350
D
3
ACAD_MLINESTYLE
350
17
0
DICTIONARY
5
D
100
AcDbDictionary
0
DICTIONARY
5
1A
330
C
100
AcDbDictionary
0
DICTIONARY
5
17
100
AcDbDictionary
0
ENDSEC
0
EOF
